<svg width="40" height="40" viewBox="0 0 40 40" fill="none" xmlns="http://www.w3.org/2000/svg">
<circle cx="20" cy="20" r="20" fill="#F3F3F3"/>
<g opacity="0.4">
<path fill-rule="evenodd" clip-rule="evenodd" d="M18.7085 10.0375C17.6769 10.184 16.7292 10.6338 15.9656 11.3395C15.022 12.2117 14.5643 13.196 14.5091 14.4724C14.4484 15.8761 14.8853 16.9445 15.9166 17.9145C16.8979 18.8376 17.8572 19.2429 19.207 19.3049C20.5006 19.3642 21.5444 19.0635 22.5759 18.3343C23.3936 17.7561 24.0565 16.8059 24.3332 15.8151C24.4989 15.2218 24.5024 14.1308 24.3405 13.5429C23.971 12.2011 22.9913 11.0665 21.7076 10.4938C21.3253 10.3233 20.8632 10.1516 20.6809 10.1123C20.1655 10.0012 19.2174 9.96528 18.7085 10.0375ZM20.8414 11.0129C21.5038 11.2393 21.9967 11.5459 22.4764 12.0299C23.003 12.5615 23.3035 13.066 23.4822 13.7189C23.7285 14.6192 23.649 15.4156 23.2281 16.2627C22.3446 18.0411 20.1076 18.9654 18.2053 18.3383C17.2326 18.0176 16.255 17.2457 15.8339 16.4657C15.3448 15.56 15.2145 14.5107 15.4832 13.6411C15.89 12.3247 17.0999 11.2289 18.5177 10.8931C19.1499 10.7432 20.2126 10.798 20.8414 11.0129ZM17.8391 20.1916C16.1238 20.461 14.345 21.2802 13.0132 22.4139C11.2399 23.9234 10.1135 26.1681 10.0185 28.3815C9.98162 29.2402 9.98722 29.2864 10.1552 29.5176C10.5316 30.0356 9.82937 29.9994 19.4918 29.9995L28.1404 29.9996L28.4267 29.8492C28.6153 29.7502 28.7667 29.5954 28.8701 29.3957C29.0109 29.1238 29.0218 29.0243 28.9754 28.4272C28.8029 26.2111 27.9416 24.3707 26.345 22.8067C24.9485 21.4389 23.0902 20.5085 21.1284 20.1952C20.2874 20.0608 18.6826 20.0591 17.8391 20.1916ZM20.3889 20.9102C22.2842 21.1131 23.959 21.8348 25.3435 23.0451C26.18 23.7763 26.7773 24.5225 27.2415 25.4161C27.8118 26.5138 28.1654 27.8748 28.1103 28.7602L28.0867 29.1389L19.5466 29.1564C12.9185 29.17 10.9822 29.1552 10.8983 29.09C10.8117 29.023 10.7997 28.8954 10.8379 28.4528C11.0162 26.3913 11.8522 24.6844 13.3855 23.2517C13.7706 22.8919 14.3177 22.4542 14.6014 22.2789C15.6798 21.6128 16.9406 21.1376 18.028 20.9873C18.332 20.9453 18.6636 20.8996 18.7649 20.8857C19.1359 20.8348 19.775 20.8444 20.3889 20.9102Z" fill="#212121"/>
</g>
</svg>
